<svg width="38" height="38" viewBox="0 0 38 38" fill="none" xmlns="http://www.w3.org/2000/svg">
<path d="M37.5612 0.461098C37.3473 0.248424 37.077 0.101177 36.7822 0.0366696C36.4873 -0.0278382 36.1801 -0.00692529 35.8968 0.0969496L1.02299 12.763C0.722237 12.8769 0.463302 13.0795 0.280581 13.3439C0.0978598 13.6084 0 13.922 0 14.2433C0 14.5646 0.0978598 14.8783 0.280581 15.1427C0.463302 15.4071 0.722237 15.6097 1.02299 15.7236L16.2407 21.8033L22.3277 37.0026C22.4421 37.2897 22.6381 37.5372 22.8916 37.7145C23.1451 37.8917 23.445 37.991 23.7544 38C24.0747 37.9934 24.3855 37.8901 24.6459 37.7035C24.9062 37.517 25.1039 37.256 25.2127 36.9551L37.8941 2.12351C38.0021 1.8434 38.0282 1.53839 37.9692 1.24405C37.9103 0.949716 37.7688 0.678177 37.5612 0.461098ZM23.7544 31.9836L19.3317 20.9009L26.9247 13.3171L24.6896 11.0847L17.0332 18.7318L6.00044 14.2512L33.7885 4.22924L23.7544 31.9836Z" fill="#FF598B"/>
</svg>
