<svg width="32" height="32" viewBox="0 0 32 32" fill="none" xmlns="http://www.w3.org/2000/svg">
<path d="M7.3495 6.751L8.017 3.412C8.15298 2.73166 8.52057 2.11949 9.05717 1.67971C9.59377 1.23993 10.2662 0.999725 10.96 1H21.04C21.7338 0.999725 22.4062 1.23993 22.9428 1.67971C23.4794 2.11949 23.847 2.73166 23.983 3.412L24.6505 6.751C24.7553 7.27419 25.0064 7.75689 25.3747 8.14298C25.743 8.52906 26.2133 8.80268 26.731 8.932C27.9505 9.23707 29.033 9.94102 29.8065 10.9319C30.58 11.9229 31.0001 13.1439 31 14.401V25C31 26.5913 30.3679 28.1174 29.2426 29.2426C28.1174 30.3679 26.5913 31 25 31H7C5.4087 31 3.88258 30.3679 2.75736 29.2426C1.63214 28.1174 1 26.5913 1 25V14.401C0.999886 13.1439 1.41996 11.9229 2.19347 10.9319C2.96697 9.94102 4.0495 9.23707 5.269 8.932C5.78667 8.80268 6.25699 8.52906 6.62529 8.14298C6.99359 7.75689 7.24472 7.27419 7.3495 6.751V6.751Z" stroke="#A5A5A5" stroke-width="2" stroke-linecap="round" stroke-linejoin="round"/>
<path d="M16 25C19.3137 25 22 22.3137 22 19C22 15.6863 19.3137 13 16 13C12.6863 13 10 15.6863 10 19C10 22.3137 12.6863 25 16 25Z" stroke="#A5A5A5" stroke-width="2" stroke-linecap="round" stroke-linejoin="round"/>
<path d="M14.5 7H17.5" stroke="#A5A5A5" stroke-width="2" stroke-linecap="round" stroke-linejoin="round"/>
</svg>
