<?xml version="1.0" encoding="iso-8859-1"?>
<!-- Generator: Adobe Illustrator 19.0.0, SVG Export Plug-In . SVG Version: 6.00 Build 0)  -->
<svg version="1.1" id="Capa_1" xmlns="http://www.w3.org/2000/svg" xmlns:xlink="http://www.w3.org/1999/xlink" x="0px" y="0px"
	 viewBox="-430 232.032 97.968 97.968" style="enable-background:new -430 232.032 97.968 97.968;" xml:space="preserve">
<g>
	<g>
		<path style="fill:#1890FF;" d="M-380.459,270.687c1.617,0,3.158,0.338,4.559,0.946c0.105-2.286,0.893-4.4,2.157-6.15
			c-0.89-0.186-1.808-0.285-2.748-0.285h-8.906c-0.938,0-1.856,0.098-2.739,0.282c1.347,1.869,2.152,4.15,2.165,6.62
			C-384.334,271.2-382.456,270.687-380.459,270.687z"/>
		<circle style="fill:#1890FF;" cx="-380.946" cy="253.986" r="10.496"/>
		<path style="fill:#1890FF;" d="M-364.461,282.392c5.342,0,9.67-4.33,9.67-9.67c0-5.342-4.328-9.67-9.67-9.67
			c-5.292,0-9.583,4.251-9.663,9.524c3.049,1.912,5.187,5.146,5.577,8.9C-367.305,282.058-365.924,282.392-364.461,282.392z"/>
		<path style="fill:#1890FF;" d="M-397.429,263.051c-5.343,0-9.671,4.329-9.671,9.67s4.328,9.669,9.671,9.669
			c1.892,0,3.651-0.553,5.143-1.492c0.475-3.091,2.132-5.794,4.499-7.634c0.01-0.181,0.027-0.36,0.027-0.543
			C-387.76,267.38-392.09,263.051-397.429,263.051z"/>
		<path style="fill:#1890FF;" d="M-358.18,262.845c3.049,1.912,5.187,5.146,5.576,8.901c1.241,0.581,2.623,0.916,4.086,0.916
			c5.342,0,9.67-4.329,9.67-9.67s-4.328-9.67-9.67-9.67C-353.809,253.321-358.1,257.573-358.18,262.845z"/>
		<circle style="fill:#1890FF;" cx="-380.459" cy="282.705" r="9.671"/>
		<path style="fill:#1890FF;" d="M-360.357,283.051h-8.144c-0.089,3.258-1.479,6.192-3.679,8.301
			c6.068,1.806,10.509,7.434,10.509,14.082v3.092c8.04-0.297,12.674-2.573,12.979-2.729l0.646-0.328h0.067v-10.036
			C-347.977,288.605-353.531,283.051-360.357,283.051z"/>
		<path style="fill:#1890FF;" d="M-344.415,273.321h-8.142c-0.088,3.258-1.479,6.192-3.678,8.301
			c6.068,1.806,10.508,7.433,10.508,14.081v3.092c8.039-0.296,12.674-2.572,12.979-2.729l0.646-0.327h0.069v-10.036
			C-332.033,278.876-337.587,273.321-344.415,273.321z"/>
		<path style="fill:#1890FF;" d="M-388.744,291.351c-2.189-2.099-3.575-5.017-3.677-8.254c-0.301-0.022-0.6-0.047-0.908-0.047
			h-8.203c-6.828,0-12.383,5.555-12.383,12.383v10.037l0.025,0.155l0.691,0.218c5.227,1.633,9.893,2.383,13.944,2.621v-3.031
			C-399.253,298.786-394.814,293.158-388.744,291.351z"/>
		<path style="fill:#1890FF;" d="M-376.357,293.035h-8.206c-6.828,0-12.383,5.557-12.383,12.382v10.037l0.026,0.157l0.69,0.216
			c6.516,2.035,12.177,2.715,16.835,2.715c9.101,0,14.375-2.595,14.701-2.76l0.646-0.328h0.068v-10.037
			C-363.977,298.59-369.531,293.035-376.357,293.035z"/>
		<path style="fill:#1890FF;" d="M-413.514,272.97c1.463,0,2.844-0.335,4.086-0.916c0.39-3.755,2.527-6.99,5.576-8.902
			c-0.08-5.271-4.371-9.523-9.662-9.523c-5.343,0-9.671,4.329-9.671,9.671C-423.185,268.641-418.857,272.97-413.514,272.97z"/>
		<path style="fill:#1890FF;" d="M-405.798,281.931c-2.198-2.109-3.589-5.044-3.677-8.303h-8.143
			c-6.828,0.001-12.382,5.556-12.382,12.383v10.037h0.069l0.646,0.327c0.306,0.154,4.939,2.433,12.979,2.728v-3.092
			C-416.306,289.364-411.867,283.736-405.798,281.931z"/>
		<path style="fill:#1890FF;" d="M-402.204,262.095c1.16-0.47,2.93-1.047,4.62-1.047c1.967,0,3.891,0.506,5.607,1.469
			c0.382-0.375,0.732-0.783,1.05-1.22c-1.63-2.141-2.52-4.765-2.52-7.464c0-1.818,0.406-3.622,1.18-5.261
			c-1.762-1.592-4.01-2.461-6.399-2.461c-4.348,0-8.133,2.943-9.241,7.088C-404.659,255.089-402.543,258.393-402.204,262.095z"/>
		<path style="fill:#1890FF;" d="M-370.883,260.75c0.336,0.534,0.729,1.037,1.175,1.505c1.588-0.792,3.334-1.208,5.092-1.208
			c1.729,0,3.386,0.442,4.472,0.812c0.34-4.013,2.767-7.555,6.4-9.35c-1.332-3.805-4.938-6.402-9.021-6.402
			c-2.64,0-5.14,1.084-6.945,2.992c0.634,1.512,0.955,3.101,0.955,4.73C-368.756,256.324-369.49,258.702-370.883,260.75z"/>
	</g>
</g>
</svg>
