<?xml version="1.0" encoding="iso-8859-1"?>
<!-- Generator: Adobe Illustrator 19.0.0, SVG Export Plug-In . SVG Version: 6.00 Build 0)  -->
<svg version="1.1" id="Capa_1" xmlns="http://www.w3.org/2000/svg" xmlns:xlink="http://www.w3.org/1999/xlink" x="0px" y="0px"
	 viewBox="-439 240.87 80.13 80.13" style="enable-background:new -439 240.87 80.13 80.13;" xml:space="preserve">
<g>
	<path style="fill:#1890FF;" d="M-390.645,258.792c3.705,2.323,6.303,6.254,6.776,10.817c1.511,0.706,3.188,1.112,4.966,1.112
		c6.491,0,11.752-5.261,11.752-11.751c0-6.491-5.261-11.752-11.752-11.752C-385.332,247.22-390.547,252.387-390.645,258.792z
		 M-398.344,282.854c6.491,0,11.752-5.262,11.752-11.752s-5.262-11.751-11.752-11.751s-11.754,5.262-11.754,11.752
		S-404.834,282.854-398.344,282.854z M-393.359,283.655h-9.972c-8.297,0-15.047,6.751-15.047,15.048v12.195l0.031,0.191l0.84,0.263
		c7.918,2.474,14.797,3.299,20.459,3.299c11.059,0,17.469-3.153,17.864-3.354l0.785-0.397h0.084v-12.197
		C-378.312,290.406-385.062,283.655-393.359,283.655z M-373.916,271.523h-9.895c-0.107,3.959-1.797,7.524-4.47,10.088
		c7.375,2.193,12.771,9.032,12.771,17.11v3.758c9.77-0.358,15.4-3.127,15.771-3.313l0.785-0.398h0.084v-12.199
		C-358.87,278.273-365.62,271.523-373.916,271.523z M-418.965,270.723c2.299,0,4.438-0.671,6.25-1.814
		c0.576-3.757,2.59-7.04,5.467-9.276c0.012-0.22,0.033-0.438,0.033-0.66c0-6.491-5.262-11.752-11.75-11.752
		c-6.492,0-11.752,5.261-11.752,11.752C-430.717,265.461-425.457,270.723-418.965,270.723z M-408.411,281.611
		c-2.66-2.551-4.344-6.097-4.467-10.032c-0.367-0.027-0.73-0.056-1.104-0.056h-9.971c-8.297,0-15.047,6.75-15.047,15.046v12.197
		l0.031,0.188l0.84,0.265c6.352,1.983,12.021,2.897,16.945,3.185v-3.683C-421.182,290.643-415.788,283.806-408.411,281.611z"/>
</g>
</svg>
