<?xml version="1.0" encoding="iso-8859-1"?>
<!-- Generator: Adobe Illustrator 19.0.0, SVG Export Plug-In . SVG Version: 6.00 Build 0)  -->
<svg version="1.1" id="Layer_1" xmlns="http://www.w3.org/2000/svg" xmlns:xlink="http://www.w3.org/1999/xlink" x="0px" y="0px"
	 viewBox="-463 261 32 40" style="enable-background:new -463 261 32 40;" xml:space="preserve">
<path style="fill:#1890FF;" d="M-441.194,289.06V293h-21.83c0-5.53-0.23-14.31,11.65-14.31c5.13,0,8,1.71,9.61,4.09h-4.16v6.279
	h4.73V289.06z"/>
<path style="fill:#1890FF;" d="M-451.375,265.29c3.45,0,6.25,2.79,6.25,6.25c0,3.45-2.8,6.25-6.25,6.25c-3.46,0-6.25-2.8-6.25-6.25
	C-457.625,268.08-454.834,265.29-451.375,265.29z"/>
<polygon style="fill:#1890FF;" points="-430.975,283.56 -430.975,288.28 -435.694,288.28 -435.694,293 -440.414,293 
	-440.414,288.28 -445.124,288.28 -445.124,283.56 -440.414,283.56 -440.414,278.84 -435.694,278.84 -435.694,283.56 "/>
</svg>
